<?xml version="1.0" encoding="UTF-8" standalone="no" ?>
<!DOCTYPE svg PUBLIC "-//W3C//DTD SVG 1.1//EN" "http://www.w3.org/Graphics/SVG/1.1/DTD/svg11.dtd">
<svg xmlns="http://www.w3.org/2000/svg" xmlns:xlink="http://www.w3.org/1999/xlink" version="1.1" width="2924" height="1600" viewBox="0 0 2924 1600" xml:space="preserve">
<desc>Created with Fabric.js 5.2.4</desc>
<defs>
</defs>
<g transform="matrix(1 0 0 1 1462 800)" id="c52ff7ee-d9b0-4458-9f5e-9c4a515302f7"  >
<rect style="stroke: none; stroke-width: 1; stroke-dasharray: none; stroke-linecap: butt; stroke-dashoffset: 0; stroke-linejoin: miter; stroke-miterlimit: 4; fill: rgb(255,255,255); fill-rule: nonzero; opacity: 1; visibility: hidden;" vector-effect="non-scaling-stroke"  x="-1462" y="-800" rx="0" ry="0" width="2924" height="1600" />
</g>
<g transform="matrix(0 0 0 0 0 0)" id="7684bf94-2ab7-46da-8fc0-1f0cd1c9b5f3"  >
</g>
<g transform="matrix(1.08 0 0 1.48 566.53 799.66)"  >
<g style="" vector-effect="non-scaling-stroke"   >
		<g transform="matrix(1 0 0 1 0 -7.4)"  >
<rect style="stroke: none; stroke-width: 1; stroke-dasharray: none; stroke-linecap: butt; stroke-dashoffset: 0; stroke-linejoin: miter; stroke-miterlimit: 4; fill: rgb(207,130,130); fill-rule: nonzero; opacity: 1; visibility: hidden;" vector-effect="non-scaling-stroke"  x="-540" y="-540" rx="0" ry="0" width="1080" height="1080" />
</g>
		<g transform="matrix(243.23 0 0 73.86 -270.63 4.66)"  >
<rect style="stroke: rgb(165,29,45); stroke-width: 0; stroke-dasharray: none; stroke-linecap: butt; stroke-dashoffset: 0; stroke-linejoin: miter; stroke-miterlimit: 4; fill: rgb(207,130,130); fill-rule: nonzero; opacity: 1;" vector-effect="non-scaling-stroke"  x="-1.08" y="-7.355" rx="0" ry="0" width="2.16" height="14.71" />
</g>
</g>
</g>
<g transform="matrix(1.08 0 0 1.48 1220.2 800)"  >
<g style="" vector-effect="non-scaling-stroke"   >
		<g transform="matrix(1 0 0 1 0 -7.4)"  >
<rect style="stroke: none; stroke-width: 1; stroke-dasharray: none; stroke-linecap: butt; stroke-dashoffset: 0; stroke-linejoin: miter; stroke-miterlimit: 4; fill: rgb(228,151,136); fill-rule: nonzero; opacity: 1; visibility: hidden;" vector-effect="non-scaling-stroke"  x="-540" y="-540" rx="0" ry="0" width="1080" height="1080" />
</g>
		<g transform="matrix(243.23 0 0 73.86 -270.63 4.66)"  >
<rect style="stroke: rgb(165,29,45); stroke-width: 0; stroke-dasharray: none; stroke-linecap: butt; stroke-dashoffset: 0; stroke-linejoin: miter; stroke-miterlimit: 4; fill: rgb(228,151,136); fill-rule: nonzero; opacity: 1;" vector-effect="non-scaling-stroke"  x="-1.08" y="-7.355" rx="0" ry="0" width="2.16" height="14.71" />
</g>
</g>
</g>
<g transform="matrix(1.08 0 0 1.48 1877.53 800)"  >
<g style="" vector-effect="non-scaling-stroke"   >
		<g transform="matrix(1 0 0 1 0 -7.4)"  >
<rect style="stroke: none; stroke-width: 1; stroke-dasharray: none; stroke-linecap: butt; stroke-dashoffset: 0; stroke-linejoin: miter; stroke-miterlimit: 4; fill: rgb(190,164,128); fill-rule: nonzero; opacity: 1; visibility: hidden;" vector-effect="non-scaling-stroke"  x="-540" y="-540" rx="0" ry="0" width="1080" height="1080" />
</g>
		<g transform="matrix(243.23 0 0 73.86 -270.63 4.66)"  >
<rect style="stroke: rgb(165,29,45); stroke-width: 0; stroke-dasharray: none; stroke-linecap: butt; stroke-dashoffset: 0; stroke-linejoin: miter; stroke-miterlimit: 4; fill: rgb(190,164,128); fill-rule: nonzero; opacity: 1;" vector-effect="non-scaling-stroke"  x="-1.08" y="-7.355" rx="0" ry="0" width="2.16" height="14.71" />
</g>
</g>
</g>
<g transform="matrix(1.08 0 0 1.48 2553.14 800)"  >
<g style="" vector-effect="non-scaling-stroke"   >
		<g transform="matrix(1 0 0 1 0 -7.4)"  >
<rect style="stroke: none; stroke-width: 1; stroke-dasharray: none; stroke-linecap: butt; stroke-dashoffset: 0; stroke-linejoin: miter; stroke-miterlimit: 4; fill: rgb(179,190,142); fill-rule: nonzero; opacity: 1; visibility: hidden;" vector-effect="non-scaling-stroke"  x="-540" y="-540" rx="0" ry="0" width="1080" height="1080" />
</g>
		<g transform="matrix(243.23 0 0 73.86 -270.63 4.66)"  >
<rect style="stroke: rgb(165,29,45); stroke-width: 0; stroke-dasharray: none; stroke-linecap: butt; stroke-dashoffset: 0; stroke-linejoin: miter; stroke-miterlimit: 4; fill: rgb(179,190,142); fill-rule: nonzero; opacity: 1;" vector-effect="non-scaling-stroke"  x="-1.08" y="-7.355" rx="0" ry="0" width="2.16" height="14.71" />
</g>
</g>
</g>
</svg>